<svg width="18" height="18" viewBox="0 0 18 18" fill="none" xmlns="http://www.w3.org/2000/svg">
<path fill-rule="evenodd" clip-rule="evenodd" d="M11.2288 3.36011C12.1239 3.36114 12.8592 4.04662 12.9435 4.92353L12.9515 5.09008L12.9524 6.12898L16.2252 4.50936C16.6513 4.29972 17.1001 4.2978 17.4513 4.51701C17.7639 4.71208 17.9543 5.05438 17.9928 5.46254L18 5.61852V13.102C18 13.5786 17.8028 13.9856 17.4513 14.2049C17.1437 14.397 16.7611 14.4197 16.3851 14.2814L16.2246 14.2123L12.9507 12.5902L12.9515 13.6304C12.9506 14.4729 12.3505 15.1744 11.5558 15.3286L11.3944 15.352L11.2285 15.3601H1.72273C0.827686 15.3591 0.0923807 14.6736 0.00806124 13.7967L0 13.6301L9.85081e-08 5.09021C0.000821917 4.19139 0.683582 3.45289 1.55688 3.3682L1.72273 3.36011L11.2288 3.36011ZM11.2283 4.49172H1.72329C1.43057 4.49208 1.1872 4.70383 1.13644 4.98289L1.12672 5.09042L1.12672 13.6295C1.12708 13.9234 1.33797 14.1678 1.61591 14.2187L1.72301 14.2285H11.23C11.5227 14.2281 11.7661 14.0164 11.8168 13.7373L11.8265 13.6298V10.7723L16.723 13.1964C16.8067 13.2371 16.8589 13.2421 16.8582 13.2426L16.8722 13.1633L16.875 13.102V5.61955C16.875 5.52646 16.8569 5.47818 16.8558 5.47747L16.8217 5.486C16.8104 5.48924 16.7963 5.49372 16.78 5.49996L16.7242 5.52442L11.8248 7.9478V5.09071C11.8244 4.76006 11.5576 4.49213 11.2283 4.49172Z" fill="white"/>
</svg>
