<svg width="18" height="18" viewBox="0 0 18 18" fill="none" xmlns="http://www.w3.org/2000/svg">
<path fill-rule="evenodd" clip-rule="evenodd" d="M13.7572 8.25061C13.4004 8.25061 13.1143 8.5241 13.1143 8.85755C13.1143 11.3526 11.0022 13.3717 8.40002 13.3717C5.79785 13.3717 3.68574 11.3526 3.68574 8.85755C3.68574 8.5241 3.39964 8.25061 3.04288 8.25061C2.68612 8.25061 2.40002 8.5241 2.40002 8.85755C2.40002 11.6252 4.46905 13.9745 7.26774 14.4838L7.54082 14.5273L7.75649 14.5568L7.75625 16.7852L4.84255 16.7853L4.75244 16.7899C4.4295 16.8258 4.18574 17.0857 4.18574 17.3927C4.18574 17.6891 4.41179 17.9381 4.71259 17.9898L4.8286 17.9996L11.9575 18L12.0476 17.9954C12.3705 17.9596 12.6143 17.6996 12.6143 17.3927C12.6143 17.0963 12.3883 16.8472 12.0874 16.7956L11.9714 16.7857L9.04238 16.7852L9.04371 14.5568L9.25923 14.5273C12.1954 14.1256 14.4 11.7145 14.4 8.85755C14.4 8.5241 14.1139 8.25061 13.7572 8.25061ZM8.4 0C6.63453 0 5.19335 1.31276 5.0851 2.96735L5.07857 3.16748L5.07845 8.84994L5.08461 9.05027C5.18927 10.7152 6.63924 12.025 8.4 12.025C10.1655 12.025 11.6067 10.7123 11.7149 9.05769L11.7214 8.85756L11.7215 3.1751L11.7154 2.97476C11.6107 1.30987 10.1608 0 8.4 0ZM8.4 1.21389C9.46021 1.21389 10.3336 1.99249 10.4274 2.9894L10.4357 3.16748L10.4354 8.86964L10.4263 9.04615C10.3265 10.0449 9.44957 10.8112 8.4 10.8112C7.33979 10.8112 6.46639 10.0326 6.37262 9.03564L6.36429 8.85756L6.36459 3.1554L6.37367 2.97889C6.47351 1.9801 7.35043 1.21389 8.4 1.21389Z" fill="white"/>
</svg>
