<svg width="15" height="15" viewBox="0 0 15 15" fill="none" xmlns="http://www.w3.org/2000/svg">
<path fill-rule="evenodd" clip-rule="evenodd" d="M10.5 0.75C10.5 0.336 10.836 0 11.25 0H15V3.75C15 4.164 14.664 4.5 14.25 4.5C13.836 4.5 13.5 4.164 13.5 3.75V2.5605L9.53025 6.53025C9.384 6.67688 9.192 6.75 9 6.75C8.808 6.75 8.616 6.67688 8.46975 6.53025C8.17688 6.23738 8.17688 5.76262 8.46975 5.46975L12.4395 1.5H11.25C10.836 1.5 10.5 1.164 10.5 0.75ZM5.46975 8.46975C5.616 8.32312 5.808 8.25 6 8.25C6.192 8.25 6.384 8.32312 6.53025 8.46975C6.82312 8.76262 6.82312 9.23738 6.53025 9.53025L2.5605 13.5H3.75C4.164 13.5 4.5 13.836 4.5 14.25C4.5 14.664 4.164 15 3.75 15H0V11.25C0 10.836 0.336 10.5 0.75 10.5C1.164 10.5 1.5 10.836 1.5 11.25V12.4395L5.46975 8.46975Z" fill="white"/>
</svg>
