<svg width="18" height="18" viewBox="0 0 18 18" fill="none" xmlns="http://www.w3.org/2000/svg">
<rect width="18" height="18" fill="white"/>
<path fill-rule="evenodd" clip-rule="evenodd" d="M7.19714 4.80201L10.413 4.80005C13.4574 4.80005 15.2207 5.14304 16.383 6.03567C17.5365 6.92148 18 8.33016 18 10.5708C17.9984 11.0266 17.8843 11.4956 17.6702 11.8886C17.4006 12.3833 16.9768 12.7073 16.4686 12.7073C15.9961 12.7073 15.3006 12.6594 14.5946 12.5805L14.046 12.5126C13.5384 12.4426 13.152 12.3652 12.8735 12.2723C12.3811 12.1082 12.0948 11.6707 11.981 11.0981C11.9435 10.9093 11.9231 10.7171 11.9141 10.5016L11.9088 10.2777L11.9118 9.7546L11.9293 9.10627L11.9284 9.06634C11.923 8.88844 11.8983 8.79553 11.8586 8.74429C11.8109 8.6829 11.6995 8.62555 11.4599 8.57288C11.1941 8.51446 10.8005 8.47943 10.28 8.47062L10.0093 8.46841H7.99073C7.3343 8.46841 6.85021 8.50472 6.5401 8.57287C6.30049 8.62555 6.18908 8.6829 6.14144 8.74431C6.10964 8.78529 6.08747 8.85294 6.07713 8.96945L6.07066 9.19056L6.08819 9.7546L6.09097 10.2838C6.08869 10.5462 6.07704 10.7423 6.0464 10.9424L6.01895 11.0981C5.90516 11.6707 5.61895 12.1082 5.12652 12.2723C4.7552 12.3961 4.19206 12.4925 3.4054 12.5805C2.69944 12.6594 2.0039 12.7073 1.5314 12.7073C1.02317 12.7073 0.599363 12.3833 0.329832 11.8886C0.115659 11.4956 0.00160468 11.0266 0 10.5704C0 8.33016 0.463489 6.92148 1.61697 6.03567C2.7288 5.18185 4.39044 4.83091 7.19714 4.80201Z" fill="#EB0000"/>
</svg>
