<?xml version="1.0" encoding="UTF-8"?>
<svg width="15px" height="15px" viewBox="0 0 15 15" version="1.1" xmlns="http://www.w3.org/2000/svg"
     xmlns:xlink="http://www.w3.org/1999/xlink">
    <!-- Generator: Sketch 61 (89581) - https://sketch.com -->
    <title>ico/close_heavy</title>
    <desc>Created with Sketch.</desc>
    <g id="ico/close_heavy" stroke="none" stroke-width="1" fill="none" fill-rule="evenodd">
        <path d="M9.19433838,7.45014171 L14.6090931,1.95011529 C15.0606425,1.49858608 15.0606425,0.795197672 14.6065151,0.341070262 C14.1523877,-0.113057148 13.4489993,-0.113057148 12.9948719,0.341070262 L7.58015651,5.84103749 L1.94840927,0.337284508 C1.49811138,-0.113057148 0.794722968,-0.113057148 0.340595558,0.341070262 C-0.113531853,0.795197672 -0.113531853,1.49858608 0.340595558,1.9527135 L5.96714936,7.45143186 L0.344425076,12.946367 C-0.113531853,13.4042801 -0.113531853,14.1076685 0.340595558,14.5617959 C0.56245477,14.7836552 0.85087304,14.8797946 1.1690141,14.8797946 C1.48715515,14.8797946 1.77557342,14.7836552 1.99743263,14.5617959 L7.62534856,9.06182805 L13.0374877,14.5591977 C13.2619249,14.7836552 13.5503432,14.8797946 13.8684842,14.8797946 C14.2169677,14.8797946 14.5236684,14.7702586 14.7102462,14.490392 C15.1058363,14.1076685 15.1058363,13.4042801 14.6517089,12.9501527 L9.19433838,7.45014171 Z"
              id="ico-close" fill="#172B3A" fill-rule="nonzero"></path>
    </g>
</svg>
